<svg width="32" height="32" viewBox="0 0 32 32" fill="none" xmlns="http://www.w3.org/2000/svg">
<path d="M6.644 9.59602C8.2552 9.59602 9.56134 8.28988 9.56134 6.67869C9.56134 5.06749 8.2552 3.76135 6.644 3.76135C5.0328 3.76135 3.72667 5.06749 3.72667 6.67869C3.72667 8.28988 5.0328 9.59602 6.644 9.59602Z" fill="#D3E97A"/>
<path d="M12.316 11.8067V27.992H17.3413V19.988C17.3413 17.876 17.7387 15.8307 20.3573 15.8307C22.94 15.8307 22.972 18.2453 22.972 20.1213V27.9933H28V19.1173C28 14.7573 27.0613 11.4067 21.9653 11.4067C19.5187 11.4067 17.8787 12.7493 17.208 14.02H17.14V11.8067H12.316ZM4.12666 11.8067H9.16V27.992H4.12666V11.8067Z" fill="#D3E97A"/>
</svg>
