<svg width="32" height="32" viewBox="0 0 32 32" fill="none" xmlns="http://www.w3.org/2000/svg">
<path fill-rule="evenodd" clip-rule="evenodd" d="M16.0347 2.66669C8.68933 2.66669 2.73599 8.62002 2.73599 15.9654C2.73599 21.84 6.54533 26.8254 11.8307 28.5854C12.496 28.7054 12.736 28.296 12.736 27.944C12.736 27.628 12.7253 26.7907 12.7213 25.6827C9.02133 26.4854 8.23999 23.8987 8.23999 23.8987C7.63733 22.3627 6.76399 21.9534 6.76399 21.9534C5.55733 21.128 6.85599 21.1467 6.85599 21.1467C8.19199 21.24 8.89199 22.5174 8.89199 22.5174C10.0787 24.5494 12.0067 23.9627 12.7613 23.6227C12.8827 22.7627 13.2293 22.176 13.608 21.844C10.656 21.5094 7.55199 20.368 7.55199 15.2707C7.55199 13.8214 8.07066 12.632 8.91733 11.704C8.78266 11.3667 8.32266 10.0134 9.04933 8.18402C9.04933 8.18402 10.1653 7.82535 12.7053 9.54535C13.7901 9.25025 14.9091 9.09961 16.0333 9.09735C17.1576 9.09918 18.2766 9.24982 19.3613 9.54535C21.9027 7.82402 23.0173 8.18402 23.0173 8.18402C23.744 10.0134 23.288 11.3667 23.1493 11.704C24.0027 12.632 24.5147 13.82 24.5147 15.2707C24.5147 20.3814 21.408 21.504 18.4453 21.8334C18.9187 22.244 19.3453 23.0547 19.3453 24.2947C19.3453 26.0734 19.3293 27.508 19.3293 27.944C19.3293 28.3 19.5667 28.7134 20.2453 28.5827C25.528 26.82 29.3333 21.8387 29.3333 15.9654C29.3333 8.62002 23.38 2.66669 16.0347 2.66669Z" fill="#D3E97A"/>
</svg>
